<svg baseProfile="tiny" xmlns="http://www.w3.org/2000/svg" viewBox="0 0 715.5 153.9" overflow="visible" xml:space="preserve"><path d="M276.6.2v98.9h-26.3v-53l-21.9 43.5h-20.3L185.9 46v53.1h-26.2V.2H186L218 57 250 .2h26.6zM370.9 22.7v76.4h-25.3V87.2c-2.3 4.2-5.5 7.4-9.3 9.6-3.8 2.2-8.2 3.3-13.3 3.3-7.3 0-13.3-1.9-18.2-5.8-4.9-3.8-8.6-8.8-11-14.5-2.5-5.9-3.7-12.2-3.6-18.9 0-6.7 1.2-13 3.7-18.9 2.5-5.9 6-10.7 11-14.5 4.9-3.8 11-5.8 18.2-5.8 5.1 0 9.6 1.1 13.3 3.3 3.8 2.2 6.8 5.3 9.3 9.6V22.7h25.2zm-25.3 31.1c-.8-3.6-2.5-6.6-5.2-8.8-2.7-2.3-5.8-3.6-9-3.6-3.4 0-6.4 1-8.6 2.9-2.3 1.9-4.1 4.4-5.2 7.4-1.2 3-1.8 6.2-1.8 9.6 0 3.4.5 6.6 1.6 9.6 1.2 3 2.9 5.5 5.3 7.4 2.3 1.9 5.3 3 8.8 3 3.3 0 6.3-1.2 9-3.8 2.7-2.6 4.5-5.6 5.2-9.3V53.8h-.1zM413.8 32.9c2.5-3.8 5.6-6.7 9.7-8.6 4-1.9 8.2-2.9 12.7-2.9 2.7 0 5.5.3 8.2 1 2.7.7 5.3 1.6 7.8 3.1L444 43.6c-2.3-1.6-4.7-2.7-7.3-3.6-2.6-.7-5.2-1.1-7.7-1.1-1.9 0-3.8.3-5.6.7-1.8.4-3.4 1.1-4.8 2.1s-2.6 2.1-3.4 3.4c-.8 1.4-1.4 2.9-1.4 4.7v49.3h-25.3V22.7h25.3V33zM539.4 22.7l-30.8 76.4h-24.4l-30.7-76.4h25.3l17.7 53.7L514 22.7h25.4zM618 72c0 3.8-1.1 7.5-3.1 11-2.1 3.4-4.8 6.4-8.4 8.9-3.4 2.6-7.5 4.5-12.2 6-4.7 1.5-9.6 2.3-14.8 2.3-8.6 0-15.7-1.9-21.4-5.8-5.8-3.8-10-8.8-12.7-14.5-2.9-5.9-4.2-12.2-4.2-18.9 0-6.7 1.4-13.1 4.2-18.9 2.9-5.9 7.1-10.7 12.9-14.5 5.8-3.8 12.7-5.8 21.2-5.8 7.1 0 13.3 1.4 18.5 4.2 5.2 2.9 9.3 6.4 12.3 10.7 3 4.2 4.8 8.9 5.5 14 .7 4.9 0 9.7-1.8 14.1h-45.5c.7 4.8 2.6 8.5 5.5 11.1 2.9 2.6 6.2 4 9.7 4 2.9 0 5.3-.7 7.5-2.2 2.2-1.5 3.4-3.3 4-5.6H618V72zm-36.7-32.1c-2.7 0-5.1.8-6.8 2.5-1.8 1.6-3.3 3.7-4.1 6.3h21c-.7-2.5-1.8-4.5-3.6-6.2-1.9-1.7-4.1-2.6-6.5-2.6zM631.5 25.6V0h25.3v25.6h-25.3zm0 74.7V34.9h25.3v65.4h-25.3zM703 70.7c0 2.1.3 4 1 5.6.7 1.6 1.5 3 2.7 4.1 1.1 1.1 2.5 1.8 4 2.3 1.5.4 3.1.4 4.8.1v16c-1.4.4-2.9.7-4.9 1-1.9.3-4 .4-6.3.4-2.9 0-5.9-.4-9.2-1.1-3.1-.7-6-2.2-8.6-4.4-2.6-2.2-4.8-5.2-6.4-9-1.6-3.8-2.6-8.8-2.6-14.9v-32h-7.9V23c3.8-1.1 7-3.3 9.3-6.6s4-7.1 5.1-11.2h19V23h9.7v15.9H703v31.8z"/><path fill="#0E5EDD" d="M0 .1v52.7l21.7 12.8 22.6 13.2 22.2 13.1 22.1-13.1v74.5l41-24.2 3.3-1.9V0L88.6 26.1v26.1l-22.2-13-22.1-13.1z"/><path fill="#F89A1C" d="M0 78.3v48.9l3.2 1.9 41.1 24.2V78.8L21.7 65.6z"/><g><path d="M159.6 115.2c2.1-.4 5.5-.8 8.9-.8 4.9 0 8 .8 10.3 2.7 2 1.4 3.1 3.7 3.1 6.6 0 3.6-2.4 6.8-6.4 8.3v.1c3.6.9 7.8 3.8 7.8 9.4 0 3.2-1.3 5.7-3.2 7.5-2.6 2.4-6.9 3.5-13 3.5-3.3 0-5.9-.2-7.5-.4v-36.9zm4.9 15.4h4.4c5.1 0 8.1-2.7 8.1-6.3 0-4.4-3.3-6.1-8.3-6.1-2.2 0-3.5.2-4.3.3v12.1zm0 18c.9.2 2.3.2 4.1.2 5 0 9.6-1.8 9.6-7.3 0-5.1-4.4-7.2-9.7-7.2h-4v14.3zM212.3 145c0 2.8.1 5.2.2 7.4h-4.3l-.3-4.4h-.1c-1.3 2.2-4.1 5-8.9 5-4.2 0-9.3-2.3-9.3-11.8v-15.8h4.9v14.9c0 5.1 1.6 8.6 6 8.6 3.3 0 5.6-2.3 6.5-4.5.3-.7.4-1.6.4-2.5v-16.6h4.9V145zM225.9 117.7c.1 1.7-1.2 3-3.1 3-1.7 0-3-1.3-3-3s1.3-3.1 3.1-3.1c1.8.1 3 1.4 3 3.1zm-5.5 34.6v-27h4.9v27h-4.9zM233.4 112.7h4.9v39.6h-4.9v-39.6zM269.9 112.7v32.6c0 2.4.1 5.1.2 7h-4.4l-.2-4.7h-.1c-1.5 3-4.8 5.3-9.2 5.3-6.5 0-11.5-5.5-11.5-13.7-.1-9 5.5-14.5 12.1-14.5 4.1 0 6.9 2 8.1 4.1h.1v-16.1h4.9zm-4.9 23.6c0-.6-.1-1.4-.2-2.1-.7-3.1-3.4-5.7-7.1-5.7-5.1 0-8.1 4.5-8.1 10.4 0 5.5 2.7 10 8 10 3.3 0 6.3-2.2 7.2-5.9.2-.7.2-1.3.2-2.1v-4.6zM290 115.2c3-.4 6.5-.8 10.3-.8 7 0 11.9 1.6 15.2 4.7 3.3 3.1 5.3 7.4 5.3 13.5s-1.9 11.2-5.4 14.6c-3.5 3.5-9.3 5.4-16.6 5.4-3.5 0-6.4-.2-8.8-.4v-37zm4.9 33.3c1.2.2 3 .3 4.9.3 10.4 0 16-5.8 16-15.9.1-8.9-5-14.5-15.2-14.5-2.5 0-4.4.2-5.7.5v29.6zM341.9 152.3l-.4-3.4h-.2c-1.5 2.1-4.4 4-8.3 4-5.5 0-8.3-3.8-8.3-7.8 0-6.5 5.8-10.1 16.2-10v-.6c0-2.2-.6-6.2-6.1-6.2-2.5 0-5.1.8-7 2l-1.1-3.2c2.2-1.5 5.5-2.4 8.9-2.4 8.3 0 10.3 5.6 10.3 11v10.1c0 2.3.1 4.6.4 6.5h-4.4zm-.7-13.8c-5.4-.1-11.4.8-11.4 6.1 0 3.2 2.1 4.7 4.6 4.7 3.5 0 5.7-2.2 6.5-4.5.2-.5.3-1.1.3-1.6v-4.7zM359.6 117.6v7.8h7v3.7h-7v14.6c0 3.3.9 5.2 3.7 5.2 1.3 0 2.2-.2 2.8-.3l.2 3.7c-.9.4-2.5.7-4.3.7-2.3 0-4.1-.7-5.3-2.1-1.4-1.4-1.9-3.8-1.9-7v-14.7h-4.2v-3.7h4.2V119l4.8-1.4zM387 152.3l-.4-3.4h-.2c-1.5 2.1-4.4 4-8.3 4-5.5 0-8.3-3.8-8.3-7.8 0-6.5 5.8-10.1 16.2-10v-.6c0-2.2-.6-6.2-6.1-6.2-2.5 0-5.1.8-7 2l-1.1-3.2c2.2-1.5 5.5-2.4 8.9-2.4 8.3 0 10.3 5.6 10.3 11v10.1c0 2.3.1 4.6.4 6.5H387zm-.7-13.8c-5.4-.1-11.4.8-11.4 6.1 0 3.2 2.1 4.7 4.6 4.7 3.5 0 5.7-2.2 6.5-4.5.2-.5.3-1.1.3-1.6v-4.7zM416.8 152.3v-15.9l-11.9-21.6h5.5l5.3 10.4c1.5 2.8 2.6 5.1 3.7 7.8h.1c1.1-2.5 2.3-4.9 3.8-7.8l5.4-10.4h5.5l-12.6 21.6v16h-4.8zM458.6 138.6c0 10-6.9 14.3-13.4 14.3-7.3 0-12.9-5.4-12.9-13.9 0-9 5.9-14.3 13.4-14.3 7.6 0 12.9 5.6 12.9 13.9zm-21.4.3c0 5.9 3.4 10.4 8.2 10.4 4.7 0 8.2-4.4 8.2-10.5 0-4.6-2.3-10.4-8.1-10.4s-8.3 5.4-8.3 10.5zM487.3 145c0 2.8.1 5.2.2 7.4h-4.3l-.3-4.4h-.1c-1.3 2.2-4.1 5-8.9 5-4.2 0-9.3-2.3-9.3-11.8v-15.8h4.9v14.9c0 5.1 1.6 8.6 6 8.6 3.3 0 5.6-2.3 6.5-4.5.3-.7.4-1.6.4-2.5v-16.6h4.9V145zM533.7 151.1c-1.8.9-5.4 1.8-9.9 1.8-10.6 0-18.6-6.7-18.6-19 0-11.8 8-19.7 19.6-19.7 4.7 0 7.6 1 8.9 1.7l-1.2 4c-1.8-.9-4.5-1.6-7.6-1.6-8.8 0-14.7 5.6-14.7 15.5 0 9.2 5.3 15.1 14.4 15.1 3 0 6-.6 7.9-1.6l1.2 3.8zM554.2 152.3l-.4-3.4h-.2c-1.5 2.1-4.4 4-8.3 4-5.5 0-8.3-3.8-8.3-7.8 0-6.5 5.8-10.1 16.2-10v-.6c0-2.2-.6-6.2-6.1-6.2-2.5 0-5.1.8-7 2l-1.1-3.2c2.2-1.5 5.5-2.4 8.9-2.4 8.3 0 10.3 5.6 10.3 11v10.1c0 2.3.1 4.6.4 6.5h-4.4zm-.7-13.8c-5.4-.1-11.4.8-11.4 6.1 0 3.2 2.1 4.7 4.6 4.7 3.5 0 5.7-2.2 6.5-4.5.2-.5.3-1.1.3-1.6v-4.7zM566.1 132.6c0-2.8-.1-5.1-.2-7.3h4.3l.3 4.5h.1c1.3-2.6 4.5-5.1 8.9-5.1 3.7 0 9.5 2.2 9.5 11.5v16.1h-4.9v-15.6c0-4.3-1.6-8-6.2-8-3.2 0-5.7 2.3-6.6 5-.2.6-.3 1.4-.3 2.3v16.2h-4.9v-19.6zM613.9 118.9h-11.4v-4.1h27.8v4.1h-11.5v33.5h-4.9v-33.5zM631.8 133.8c0-3.2-.1-5.9-.2-8.4h4.3l.2 5.3h.2c1.2-3.6 4.2-5.9 7.5-5.9.6 0 .9.1 1.4.2v4.6c-.5-.1-1-.2-1.7-.2-3.5 0-5.9 2.6-6.6 6.3-.1.7-.2 1.4-.2 2.3v14.4h-4.9v-18.6zM672.6 145c0 2.8.1 5.2.2 7.4h-4.3l-.3-4.4h-.1c-1.3 2.2-4.1 5-8.9 5-4.2 0-9.3-2.3-9.3-11.8v-15.8h4.9v14.9c0 5.1 1.6 8.6 6 8.6 3.3 0 5.6-2.3 6.5-4.5.3-.7.4-1.6.4-2.5v-16.6h4.9V145zM680.1 147.3c1.4.9 4 2 6.5 2 3.6 0 5.2-1.8 5.2-4 0-2.3-1.4-3.6-5-5-4.9-1.7-7.1-4.4-7.1-7.6 0-4.3 3.5-7.9 9.3-7.9 2.7 0 5.1.8 6.6 1.7l-1.2 3.6c-1.1-.7-3-1.6-5.5-1.6-2.9 0-4.5 1.7-4.5 3.7 0 2.2 1.6 3.2 5.1 4.6 4.7 1.8 7.1 4.1 7.1 8.1 0 4.7-3.7 8.1-10.1 8.1-3 0-5.7-.7-7.6-1.8l1.2-3.9zM708.7 117.6v7.8h7v3.7h-7v14.6c0 3.3.9 5.2 3.7 5.2 1.3 0 2.2-.2 2.8-.3l.2 3.7c-.9.4-2.5.7-4.3.7-2.3 0-4.1-.7-5.3-2.1-1.4-1.4-1.9-3.8-1.9-7v-14.7h-4.2v-3.7h4.2V119l4.8-1.4z"/></g></svg>